<svg width="215" height="69" viewBox="0 0 215 69" fill="none" xmlns="http://www.w3.org/2000/svg">
<path d="M141.99 0.16275C141.869 0.162868 141.749 0.174868 141.631 0.198581C135.54 1.90067 136.767 10.4828 125.677 11.2174H124.602C124.445 11.2145 124.289 11.2296 124.136 11.2621H124.127C123.655 11.3754 123.235 11.6451 122.936 12.0274C122.636 12.4096 122.475 12.8819 122.478 13.3674V23.132C122.478 24.3324 123.428 25.2909 124.602 25.2909H130.38V66.7054C130.38 67.8879 131.311 68.8374 132.467 68.8374H141.945C142.504 68.8304 143.038 68.602 143.429 68.2024C143.82 67.8028 144.037 67.2645 144.032 66.7054V25.2909H149.407C150.572 25.2909 151.521 24.3324 151.521 23.132V13.3674C151.524 12.8026 151.303 12.2597 150.907 11.8571C150.511 11.4544 149.972 11.2244 149.407 11.2174H143.925V2.12463C143.927 1.86816 143.879 1.61375 143.783 1.37591C143.687 1.13806 143.545 0.921446 143.365 0.738435C143.186 0.555424 142.972 0.409599 142.736 0.309286C142.5 0.208972 142.246 0.165092 141.99 0.16275ZM179.839 10.644C176.273 10.644 173.012 11.9878 170.504 14.1826V13.0717C170.472 12.5344 170.239 12.0289 169.85 11.6567C169.461 11.2845 168.946 11.0732 168.408 11.0651H158.822C158.255 11.0745 157.715 11.3076 157.319 11.7137C156.923 12.1197 156.703 12.6658 156.708 13.233V66.2664C156.703 66.8335 156.923 67.3796 157.319 67.7857C157.715 68.1917 158.255 68.4249 158.822 68.4343H168.408C169.483 68.4343 170.352 67.6191 170.495 66.562V28.4891C170.458 27.5655 170.786 26.6646 171.408 25.9808C172.03 25.2969 172.896 24.885 173.819 24.834H175.574C176.315 24.8918 177.021 25.1729 177.599 25.6403C178.016 25.989 178.349 26.4268 178.574 26.9214C178.798 27.416 178.909 27.9548 178.898 28.498V64.9943L178.934 66.3829C178.931 66.95 179.153 67.4951 179.551 67.8995C179.949 68.3039 180.49 68.5347 181.057 68.5418H190.642C191.19 68.533 191.714 68.3145 192.106 67.9312C192.497 67.5479 192.727 67.029 192.748 66.4814L192.739 28.4443C192.739 27.1901 193.294 26.0613 194.297 25.3984C194.822 25.0514 195.426 24.8419 196.053 24.7893H197.827C199.887 24.9684 201.142 26.5809 201.142 28.4443C201.186 40.9501 201.177 53.5276 201.177 66.2843C201.175 66.8515 201.397 67.3966 201.794 67.8009C202.192 68.2053 202.733 68.4362 203.301 68.4433H212.886C214.05 68.4433 215 67.4758 215 66.2843V25.5865C215 22.8095 214.695 21.627 214.283 20.4176C213.329 17.5825 211.511 15.117 209.086 13.3661C206.66 11.6152 203.748 10.6666 200.756 10.653H200.622C198.687 10.6545 196.773 11.0528 194.998 11.8232C193.223 12.5936 191.625 13.7198 190.302 15.1322C187.695 12.373 184.031 10.653 179.973 10.653L179.839 10.644ZM2.07841 11.2084C1.80312 11.2107 1.531 11.2673 1.27756 11.3748C1.02413 11.4823 0.794356 11.6387 0.601363 11.835C0.40837 12.0313 0.255937 12.2638 0.152768 12.519C0.0495987 12.7742 -0.0022857 13.0473 7.72248e-05 13.3226V66.3918C7.72248e-05 67.5743 0.860077 68.5239 1.93508 68.5508H11.6997C12.8642 68.5508 13.8228 67.5922 13.8228 66.4008L13.8586 51.5478H23.023C30.7003 51.5478 36.0394 46.128 36.0394 38.2805V24.5026C36.0394 16.6461 30.7003 11.2084 23.023 11.2084H2.07841ZM82.9901 11.2084C82.7089 11.2107 82.431 11.2684 82.1721 11.3782C81.9132 11.488 81.6785 11.6477 81.4814 11.8481C81.2842 12.0486 81.1285 12.286 81.023 12.5466C80.9176 12.8073 80.8646 13.0862 80.867 13.3674V35.4945C80.867 43.9153 86.7526 49.8995 95.0122 49.8995H101.059C101.059 49.8995 101.202 49.8995 101.39 49.9353C101.942 50.0034 102.45 50.272 102.816 50.6899C103.183 51.1078 103.383 51.6458 103.379 52.2018C103.379 53.3664 102.519 54.307 101.417 54.4503L101.256 54.4862L98.5417 54.5399H87.2453C86.6806 54.547 86.1415 54.7769 85.7455 55.1796C85.3495 55.5823 85.1287 56.1252 85.1311 56.6899V66.4545C85.1263 67.0217 85.3458 67.5678 85.7418 67.9738C86.1378 68.3799 86.6782 68.613 87.2453 68.6224H102.922C111.164 68.6224 117.05 62.6293 117.05 54.2174V13.3674C117.052 12.8026 116.831 12.2597 116.435 11.8571C116.039 11.4544 115.5 11.2244 114.935 11.2174H105.35C104.785 11.2244 104.246 11.4544 103.85 11.8571C103.454 12.2597 103.234 12.8026 103.236 13.3674C103.191 20.4176 103.236 27.0288 103.236 33.5684C103.229 34.1602 102.991 34.7258 102.572 35.1443C102.154 35.5628 101.588 35.801 100.996 35.808H96.974C96.3745 35.8009 95.8022 35.5565 95.3824 35.1284C94.9627 34.7002 94.7297 34.1232 94.7344 33.5236C94.7792 26.769 94.6897 20.0861 94.6897 13.3674C94.6921 12.8026 94.4712 12.2597 94.0753 11.8571C93.6793 11.4544 93.1402 11.2244 92.5755 11.2174L82.9901 11.2084ZM47.1209 11.2621C46.848 11.255 46.5763 11.3017 46.3214 11.3996C46.0665 11.4975 45.8334 11.6446 45.6354 11.8327C45.4374 12.0207 45.2784 12.2459 45.1674 12.4954C45.0565 12.7449 44.9958 13.0138 44.9888 13.2867V22.4511C44.9888 23.6336 46.0011 24.6011 47.2463 24.6011H59.9044C60.9078 24.7534 61.6961 25.497 61.8126 26.6615V27.9157C61.6961 29.0266 60.9167 29.8328 59.9582 29.9224H53.6874C45.3561 29.9224 39.4078 35.5661 39.4078 43.4943V54.8624C39.4078 62.7458 44.514 68.3537 52.8005 68.3537H70.1797C73.2972 68.3537 75.8234 65.9349 75.8234 62.9787V25.927C75.8234 16.9328 71.2726 11.2621 60.4151 11.2621H47.1209ZM13.8586 25.3447H19.9324C21.1776 25.3447 22.172 26.3749 22.172 27.638V35.1272C22.1755 35.4248 22.1204 35.7203 22.0098 35.9966C21.8991 36.2729 21.7351 36.5248 21.5272 36.7377C21.3192 36.9507 21.0713 37.1206 20.7977 37.2378C20.524 37.3549 20.23 37.417 19.9324 37.4205H19.0365C17.3165 37.4384 15.5786 37.4205 13.8586 37.4205V25.3447ZM55.694 43.0553H59.6805C60.9257 43.0553 61.938 44.0228 61.938 45.2053V53.5545C61.9349 53.7869 61.8925 54.0171 61.8126 54.2353C61.6531 54.6708 61.3623 55.0461 60.9804 55.3093C60.5985 55.5724 60.1443 55.7105 59.6805 55.7045H55.694C55.1102 55.7166 54.5452 55.4973 54.1224 55.0946C53.6995 54.6918 53.453 54.1382 53.4365 53.5545V45.1964C53.4365 44.0139 54.4488 43.0553 55.694 43.0553Z" fill="#002E6E"/>
<path d="M141.988 0.162689C141.868 0.162807 141.748 0.174807 141.63 0.19852C135.538 1.9006 136.765 10.4827 125.675 11.2173H124.6C124.443 11.2145 124.287 11.2295 124.134 11.2621H124.125C123.653 11.3753 123.233 11.645 122.934 12.0273C122.634 12.4095 122.473 12.8818 122.477 13.3673V23.1319C122.477 24.3323 123.426 25.2908 124.6 25.2908H130.378V66.7052C130.378 67.8877 131.31 68.8373 132.465 68.8373H141.943C142.502 68.8302 143.036 68.6019 143.427 68.2023C143.818 67.8027 144.035 67.2644 144.03 66.7052V25.2908H149.405C150.57 25.2908 151.52 24.3323 151.52 23.1319V13.3673C151.522 12.8025 151.301 12.2597 150.905 11.857C150.509 11.4543 149.97 11.2244 149.405 11.2173H143.923V2.12456C143.925 1.8681 143.877 1.61369 143.781 1.37584C143.685 1.138 143.543 0.921384 143.364 0.738373C143.184 0.555362 142.97 0.409538 142.734 0.309224C142.498 0.208911 142.244 0.165031 141.988 0.162689ZM179.837 10.6439C176.271 10.6439 173.011 11.9877 170.502 14.1825V13.0717C170.471 12.5343 170.237 12.0289 169.848 11.6567C169.459 11.2845 168.944 11.0731 168.406 11.065H158.821C158.254 11.0744 157.713 11.3076 157.317 11.7136C156.921 12.1197 156.702 12.6657 156.706 13.2329V66.2662C156.702 66.8334 156.921 67.3795 157.317 67.7855C157.713 68.1916 158.254 68.4247 158.821 68.4342H168.406C169.481 68.4342 170.35 67.619 170.493 66.5619V28.489C170.457 27.5654 170.785 26.6645 171.406 25.9807C172.028 25.2968 172.894 24.885 173.817 24.8339H175.573C176.314 24.8917 177.02 25.1728 177.597 25.6402C178.014 25.9889 178.347 26.4267 178.572 26.9213C178.797 27.4159 178.908 27.9547 178.896 28.4979V64.9942L178.932 66.3827C178.93 66.9498 179.151 67.495 179.549 67.8993C179.947 68.3037 180.488 68.5346 181.055 68.5417H190.641C191.189 68.5329 191.712 68.3143 192.104 67.931C192.496 67.5477 192.725 67.0288 192.746 66.4812L192.737 28.4442C192.737 27.19 193.292 26.0612 194.296 25.3983C194.821 25.0513 195.424 24.8418 196.051 24.7892H197.825C199.886 24.9683 201.14 26.5808 201.14 28.4442C201.185 40.95 201.176 53.5275 201.176 66.2842C201.173 66.8513 201.395 67.3964 201.793 67.8008C202.19 68.2052 202.732 68.436 203.299 68.4431H212.884C214.049 68.4431 214.998 67.4756 214.998 66.2842V25.5864C214.998 22.8094 214.694 21.6269 214.282 20.4175C213.327 17.5825 211.51 15.1169 209.084 13.366C206.658 11.6151 203.746 10.6665 200.755 10.6529H200.62C198.685 10.6544 196.771 11.0527 194.996 11.8231C193.221 12.5935 191.623 13.7197 190.3 15.1321C187.693 12.3729 184.029 10.6529 179.971 10.6529L179.837 10.6439Z" fill="#00B9F1"/>
</svg>
